<?xml version="1.0" encoding="utf-8"?>
<svg viewBox="0 0 720 406" xmlns="http://www.w3.org/2000/svg" role="img">
  <title>啟航！探索人工智慧的數據世界 — AI 探險樂園學習地圖</title>
  <rect x="6" y="6" width="708" height="394" rx="20" fill="#FCF6E8" stroke="#EAD9B0" stroke-width="1.5"/>
  <path d="M28 30 Q 360 46 692 30" fill="none" stroke="#C9B48B" stroke-width="1.5"/>
  <path d="M39 31.1 L57 31.1 L48 46.1 Z" fill="#EF476F"/>
  <path d="M87 33.8 L105 33.8 L96 48.8 Z" fill="#FFD166"/>
  <path d="M135 36.3 L153 36.3 L144 51.3 Z" fill="#06D6A0"/>
  <path d="M183 38.4 L201 38.4 L192 53.4 Z" fill="#4D96FF"/>
  <path d="M231 40.1 L249 40.1 L240 55.1 Z" fill="#C77DFF"/>
  <path d="M279 41.3 L297 41.3 L288 56.3 Z" fill="#EF476F"/>
  <path d="M327 41.9 L345 41.9 L336 56.9 Z" fill="#FFD166"/>
  <path d="M375 41.9 L393 41.9 L384 56.9 Z" fill="#06D6A0"/>
  <path d="M423 41.3 L441 41.3 L432 56.3 Z" fill="#4D96FF"/>
  <path d="M471 40.1 L489 40.1 L480 55.1 Z" fill="#C77DFF"/>
  <path d="M519 38.4 L537 38.4 L528 53.4 Z" fill="#EF476F"/>
  <path d="M567 36.3 L585 36.3 L576 51.3 Z" fill="#FFD166"/>
  <path d="M615 33.8 L633 33.8 L624 48.8 Z" fill="#06D6A0"/>
  <path d="M663 31.1 L681 31.1 L672 46.1 Z" fill="#4D96FF"/>
  <text x="40" y="74" font-family="-apple-system, BlinkMacSystemFont, 'Segoe UI', 'Noto Sans TC', sans-serif" font-size="25" font-weight="800" fill="#EF476F">啟航！探索人工智慧的數據世界</text>
  <text x="40" y="100" font-family="-apple-system, BlinkMacSystemFont, 'Segoe UI', 'Noto Sans TC', sans-serif" font-size="14" fill="#7a6a52">AI 探險樂園 · 兩天闖關，破關做出你的第一個 AI 模型</text>
  
  <!-- Ferris Wheel Base -->
  <line x1="610" y1="184" x2="628" y2="120" stroke="#8a6238" stroke-width="3"/>
  <line x1="646" y1="184" x2="628" y2="120" stroke="#8a6238" stroke-width="3"/>
  <line x1="602" y1="184" x2="654" y2="184" stroke="#8a6238" stroke-width="3" stroke-linecap="round"/>
  <circle cx="628" cy="120" r="40" fill="none" stroke="#B5834A" stroke-width="3"/>
  
  <!-- Animated Ferris Wheel Spokes and Cabins -->
  <g>
    <animateTransform attributeName="transform" attributeType="XML" type="rotate" from="0 628 120" to="360 628 120" dur="24s" repeatCount="indefinite"/>
    <line x1="628" y1="120" x2="668" y2="120" stroke="#D9C08A" stroke-width="2"/>
    <line x1="628" y1="120" x2="656.3" y2="148.3" stroke="#D9C08A" stroke-width="2"/>
    <line x1="628" y1="120" x2="628" y2="160" stroke="#D9C08A" stroke-width="2"/>
    <line x1="628" y1="120" x2="599.7" y2="148.3" stroke="#D9C08A" stroke-width="2"/>
    <line x1="628" y1="120" x2="588" y2="120" stroke="#D9C08A" stroke-width="2"/>
    <line x1="628" y1="120" x2="599.7" y2="91.7" stroke="#D9C08A" stroke-width="2"/>
    <line x1="628" y1="120" x2="628" y2="80" stroke="#D9C08A" stroke-width="2"/>
    <line x1="628" y1="120" x2="656.3" y2="91.7" stroke="#D9C08A" stroke-width="2"/>
    <circle cx="668" cy="120" r="6" fill="#EF476F" stroke="#ffffff" stroke-width="1.5"/>
    <circle cx="656.3" cy="148.3" r="6" fill="#FF8C42" stroke="#ffffff" stroke-width="1.5"/>
    <circle cx="628" cy="160" r="6" fill="#FFD166" stroke="#ffffff" stroke-width="1.5"/>
    <circle cx="599.7" cy="148.3" r="6" fill="#8AC926" stroke="#ffffff" stroke-width="1.5"/>
    <circle cx="588" cy="120" r="6" fill="#06D6A0" stroke="#ffffff" stroke-width="1.5"/>
    <circle cx="599.7" cy="91.7" r="6" fill="#22C7D6" stroke="#ffffff" stroke-width="1.5"/>
    <circle cx="628" cy="80" r="6" fill="#4D96FF" stroke="#ffffff" stroke-width="1.5"/>
    <circle cx="656.3" cy="91.7" r="6" fill="#9B6BFF" stroke="#ffffff" stroke-width="1.5"/>
  </g>
  
  <circle cx="628" cy="120" r="5" fill="#6b3e00"/>
  <line x1="628" y1="80" x2="628" y2="66" stroke="#8a6238" stroke-width="2"/>
  <path d="M628 66 L640 70 L628 74 Z" fill="#EF476F"/>
  
  <!-- Day Labels -->
  <text x="40" y="229" font-family="-apple-system, BlinkMacSystemFont, 'Segoe UI', 'Noto Sans TC', sans-serif" font-size="13" font-weight="700" fill="#8AC926">第一天</text>
  <text x="40" y="329" font-family="-apple-system, BlinkMacSystemFont, 'Segoe UI', 'Noto Sans TC', sans-serif" font-size="13" font-weight="700" fill="#22C7D6">第二天</text>
  
  <!-- Journey Route -->
  <path d="M110 225 H590 C 640 225 640 325 590 325 H125" fill="none" stroke="#F1DCA7" stroke-width="16" stroke-linecap="round" stroke-linejoin="round"/>
  <path d="M110 225 H590 C 640 225 640 325 590 325 H125" fill="none" stroke="#ffffff" stroke-width="2" stroke-dasharray="1 13" stroke-linecap="round"/>
  
  <!-- User Badge -->
  <rect x="74" y="178" width="72" height="26" rx="7" fill="#B5834A" stroke="#8a6238" stroke-width="1.5"/>
  <text x="110" y="196" font-family="-apple-system, BlinkMacSystemFont, 'Segoe UI', 'Noto Sans TC', sans-serif" font-size="13" font-weight="700" fill="#ffffff" text-anchor="middle">使用者</text>
  
  <!-- Day 1 Steps -->
  <circle cx="110" cy="225" r="18" fill="#EF476F" stroke="#ffffff" stroke-width="2.5"/>
  <text x="110" y="230" font-family="-apple-system, BlinkMacSystemFont, 'Segoe UI', 'Noto Sans TC', sans-serif" font-size="15" font-weight="700" fill="#ffffff" text-anchor="middle">1</text>
  <text x="110" y="261" font-family="-apple-system, BlinkMacSystemFont, 'Segoe UI', 'Noto Sans TC', sans-serif" font-size="13" font-weight="600" fill="#5b4636" text-anchor="middle">張量</text>
  
  <line x1="206" y1="207" x2="206" y2="191" stroke="#8a6d3b" stroke-width="2"/>
  <path d="M206 191 L220 195 L206 199 Z" fill="#FF8C42"/>
  <circle cx="206" cy="225" r="18" fill="#FF8C42" stroke="#ffffff" stroke-width="2.5"/>
  <text x="206" y="230" font-family="-apple-system, BlinkMacSystemFont, 'Segoe UI', 'Noto Sans TC', sans-serif" font-size="15" font-weight="700" fill="#ffffff" text-anchor="middle">2</text>
  <text x="206" y="261" font-family="-apple-system, BlinkMacSystemFont, 'Segoe UI', 'Noto Sans TC', sans-serif" font-size="13" font-weight="600" fill="#5b4636" text-anchor="middle">迴歸</text>
  
  <line x1="302" y1="207" x2="302" y2="191" stroke="#8a6d3b" stroke-width="2"/>
  <path d="M302 191 L316 195 L302 199 Z" fill="#FFD166"/>
  <circle cx="302" cy="225" r="18" fill="#FFD166" stroke="#ffffff" stroke-width="2.5"/>
  <text x="302" y="230" font-family="-apple-system, BlinkMacSystemFont, 'Segoe UI', 'Noto Sans TC', sans-serif" font-size="15" font-weight="700" fill="#ffffff" text-anchor="middle">3</text>
  <text x="302" y="261" font-family="-apple-system, BlinkMacSystemFont, 'Segoe UI', 'Noto Sans TC', sans-serif" font-size="13" font-weight="600" fill="#5b4636" text-anchor="middle">感知器</text>
  
  <line x1="398" y1="207" x2="398" y2="191" stroke="#8a6d3b" stroke-width="2"/>
  <path d="M398 191 L412 195 L398 199 Z" fill="#8AC926"/>
  <circle cx="398" cy="225" r="18" fill="#8AC926" stroke="#ffffff" stroke-width="2.5"/>
  <text x="398" y="230" font-family="-apple-system, BlinkMacSystemFont, 'Segoe UI', 'Noto Sans TC', sans-serif" font-size="15" font-weight="700" fill="#ffffff" text-anchor="middle">4</text>
  <text x="398" y="261" font-family="-apple-system, BlinkMacSystemFont, 'Segoe UI', 'Noto Sans TC', sans-serif" font-size="13" font-weight="600" fill="#5b4636" text-anchor="middle">MLP</text>
  
  <line x1="494" y1="207" x2="494" y2="191" stroke="#8a6d3b" stroke-width="2"/>
  <path d="M494 191 L508 195 L494 199 Z" fill="#06D6A0"/>
  <circle cx="494" cy="225" r="18" fill="#06D6A0" stroke="#ffffff" stroke-width="2.5"/>
  <text x="494" y="230" font-family="-apple-system, BlinkMacSystemFont, 'Segoe UI', 'Noto Sans TC', sans-serif" font-size="15" font-weight="700" fill="#ffffff" text-anchor="middle">5</text>
  <text x="494" y="261" font-family="-apple-system, BlinkMacSystemFont, 'Segoe UI', 'Noto Sans TC', sans-serif" font-size="13" font-weight="600" fill="#5b4636" text-anchor="middle">卷積</text>
  
  <line x1="590" y1="207" x2="590" y2="191" stroke="#8a6d3b" stroke-width="2"/>
  <path d="M590 191 L604 195 L590 199 Z" fill="#22C7D6"/>
  <circle cx="590" cy="225" r="18" fill="#22C7D6" stroke="#ffffff" stroke-width="2.5"/>
  <text x="590" y="230" font-family="-apple-system, BlinkMacSystemFont, 'Segoe UI', 'Noto Sans TC', sans-serif" font-size="15" font-weight="700" fill="#ffffff" text-anchor="middle">6</text>
  <text x="590" y="261" font-family="-apple-system, BlinkMacSystemFont, 'Segoe UI', 'Noto Sans TC', sans-serif" font-size="13" font-weight="600" fill="#5b4636" text-anchor="middle">CNN</text>
  
  <!-- Day 2 Steps -->
  <line x1="590" y1="307" x2="590" y2="291" stroke="#8a6d3b" stroke-width="2"/>
  <path d="M590 291 L604 295 L590 299 Z" fill="#4D96FF"/>
  <circle cx="590" cy="325" r="18" fill="#4D96FF" stroke="#ffffff" stroke-width="2.5"/>
  <text x="590" y="330" font-family="-apple-system, BlinkMacSystemFont, 'Segoe UI', 'Noto Sans TC', sans-serif" font-size="15" font-weight="700" fill="#ffffff" text-anchor="middle">7</text>
  <text x="590" y="361" font-family="-apple-system, BlinkMacSystemFont, 'Segoe UI', 'Noto Sans TC', sans-serif" font-size="13" font-weight="600" fill="#5b4636" text-anchor="middle">RNN</text>
  
  <line x1="435" y1="307" x2="435" y2="291" stroke="#8a6d3b" stroke-width="2"/>
  <path d="M435 291 L449 295 L435 299 Z" fill="#9B6BFF"/>
  <circle cx="435" cy="325" r="18" fill="#9B6BFF" stroke="#ffffff" stroke-width="2.5"/>
  <text x="435" y="330" font-family="-apple-system, BlinkMacSystemFont, 'Segoe UI', 'Noto Sans TC', sans-serif" font-size="15" font-weight="700" fill="#ffffff" text-anchor="middle">8</text>
  <text x="435" y="361" font-family="-apple-system, BlinkMacSystemFont, 'Segoe UI', 'Noto Sans TC', sans-serif" font-size="13" font-weight="600" fill="#5b4636" text-anchor="middle">LSTM</text>
  
  <line x1="280" y1="307" x2="280" y2="291" stroke="#8a6d3b" stroke-width="2"/>
  <path d="M280 291 L294 295 L280 299 Z" fill="#C77DFF"/>
  <circle cx="280" cy="325" r="18" fill="#C77DFF" stroke="#ffffff" stroke-width="2.5"/>
  <text x="280" y="330" font-family="-apple-system, BlinkMacSystemFont, 'Segoe UI', 'Noto Sans TC', sans-serif" font-size="15" font-weight="700" fill="#ffffff" text-anchor="middle">9</text>
  <text x="280" y="361" font-family="-apple-system, BlinkMacSystemFont, 'Segoe UI', 'Noto Sans TC', sans-serif" font-size="13" font-weight="600" fill="#5b4636" text-anchor="middle">BERT</text>
  
  <line x1="125" y1="307" x2="125" y2="291" stroke="#8a6d3b" stroke-width="2"/>
  <path d="M125 291 L139 295 L125 299 Z" fill="#FF6FB5"/>
  <circle cx="125" cy="325" r="18" fill="#FF6FB5" stroke="#ffffff" stroke-width="2.5"/>
  <text x="125" y="330" font-family="-apple-system, BlinkMacSystemFont, 'Segoe UI', 'Noto Sans TC', sans-serif" font-size="15" font-weight="700" fill="#ffffff" text-anchor="middle">10</text>
  <text x="125" y="361" font-family="-apple-system, BlinkMacSystemFont, 'Segoe UI', 'Noto Sans TC', sans-serif" font-size="13" font-weight="600" fill="#5b4636" text-anchor="middle">結業</text>
  
  <!-- Creator Badge -->
  <path d="M112 375 l3 7 7 1 -5 5 1 7 -6 -3 -6 3 1 -7 -5 -5 7 -1 z" fill="#FFB703"/>
  <rect x="96" y="369" width="86" height="28" rx="14" fill="#FFB703" stroke="#E09600" stroke-width="1.5"/>
  <text x="139" y="388" font-family="-apple-system, BlinkMacSystemFont, 'Segoe UI', 'Noto Sans TC', sans-serif" font-size="14" font-weight="800" fill="#6b3e00" text-anchor="middle">創造者</text>
</svg>
